# Blender 5.0.1
# www.blender.org
mtllib bosse.mtl
o TALUS
v 75.465454 6.130243 30.200449
v 75.465454 6.247683 29.378983
v 75.465454 6.661241 28.662861
v 75.465454 7.193297 28.167356
v 75.465454 7.610169 27.598799
v 75.465454 7.737411 26.923183
v 75.465454 7.610169 26.247568
v 75.465454 7.193297 25.679010
v 75.465454 6.661241 25.183506
v 72.357681 6.130243 23.645918
v 75.465454 6.247683 24.467384
v 72.357681 6.247683 24.467384
v 72.357681 6.661241 25.183506
v 72.357681 7.193297 25.679010
v 72.357681 7.610169 26.247568
v 72.357681 7.737411 26.923183
v 72.357681 7.610169 27.598799
v 72.357681 7.193297 28.167356
v 72.357681 6.661241 28.662861
v 72.357681 6.247683 29.378983
v 72.357681 6.130243 30.200449
v 75.465454 6.130243 23.645918
v 72.357681 5.893513 23.645918
v 72.357681 5.893513 24.467384
v 72.357681 5.893513 25.183506
v 72.357681 5.893513 25.679010
v 72.357681 5.893513 26.247568
v 72.357681 5.893513 26.923183
v 72.357681 5.893513 27.598799
v 72.357681 5.893513 28.167356
v 72.357681 5.893513 28.662861
v 72.357681 5.893513 29.378983
v 72.357681 5.893513 30.200449
v 75.465454 5.893513 30.200449
v 75.465454 5.893513 29.378983
v 75.465454 5.893513 28.662861
v 75.465454 5.893513 28.167356
v 75.465454 5.893513 27.598799
v 75.465454 5.893513 26.923183
v 75.465454 5.893513 26.247568
v 75.465454 5.893513 25.679010
v 75.465454 5.893513 25.183506
v 75.465454 5.893513 24.467384
v 75.465454 5.893513 23.645918
vn -0.0000 0.9827 -0.1851
vn -0.0000 0.9827 0.1851
vn -0.0000 0.9899 -0.1415
vn -0.0000 0.8065 0.5913
vn -0.0000 0.8660 -0.5001
vn -0.0000 0.6815 0.7318
vn -0.0000 0.6815 -0.7318
vn -0.0000 0.8660 0.5001
vn -0.0000 0.8065 -0.5913
vn -0.0000 0.9899 0.1415
vn -1.0000 -0.0000 -0.0000
vn 1.0000 -0.0000 -0.0000
vn -0.0000 -0.0000 1.0000
vn -0.0000 -0.0000 -1.0000
vt 0.000000 0.000000
s 0
f 6/1/1 7/1/1 15/1/1 16/1/1
f 5/1/2 6/1/2 16/1/2 17/1/2
f 11/1/3 22/1/3 10/1/3 12/1/3
f 4/1/4 5/1/4 17/1/4 18/1/4
f 9/1/5 11/1/5 12/1/5 13/1/5
f 3/1/6 4/1/6 18/1/6 19/1/6
f 8/1/7 9/1/7 13/1/7 14/1/7
f 2/1/8 3/1/8 19/1/8 20/1/8
f 7/1/9 8/1/9 14/1/9 15/1/9
f 1/1/10 2/1/10 20/1/10 21/1/10
f 21/1/11 20/1/11 32/1/11 33/1/11
f 16/1/11 15/1/11 27/1/11 28/1/11
f 18/1/11 17/1/11 29/1/11 30/1/11
f 12/1/11 10/1/11 23/1/11 24/1/11
f 20/1/11 19/1/11 31/1/11 32/1/11
f 15/1/11 14/1/11 26/1/11 27/1/11
f 13/1/11 12/1/11 24/1/11 25/1/11
f 17/1/11 16/1/11 28/1/11 29/1/11
f 19/1/11 18/1/11 30/1/11 31/1/11
f 14/1/11 13/1/11 25/1/11 26/1/11
f 8/1/12 7/1/12 40/1/12 41/1/12
f 5/1/12 4/1/12 37/1/12 38/1/12
f 2/1/12 1/1/12 34/1/12 35/1/12
f 9/1/12 8/1/12 41/1/12 42/1/12
f 6/1/12 5/1/12 38/1/12 39/1/12
f 3/1/12 2/1/12 35/1/12 36/1/12
f 7/1/12 6/1/12 39/1/12 40/1/12
f 22/1/12 11/1/12 43/1/12 44/1/12
f 11/1/12 9/1/12 42/1/12 43/1/12
f 4/1/12 3/1/12 36/1/12 37/1/12
f 1/1/13 21/1/13 33/1/13 34/1/13
f 22/1/14 44/1/14 23/1/14 10/1/14
