# Blender 5.0.1
# www.blender.org
mtllib cratere1.mtl
o cratere1
v -0.000000 0.306663 -1.774314
v -0.000000 0.492160 -1.630871
v 0.679001 0.306663 -1.639253
v 0.624107 0.492160 -1.506728
v 1.254630 0.306663 -1.254630
v 1.153200 0.492160 -1.153200
v 1.639253 0.306663 -0.679001
v 1.506728 0.492160 -0.624107
v 1.774314 0.306663 -0.000000
v 1.630871 0.492160 -0.000000
v 1.639253 0.306663 0.679001
v 1.506728 0.492160 0.624107
v 1.254630 0.306663 1.254630
v 1.153200 0.492160 1.153200
v 0.679001 0.306663 1.639253
v 0.624107 0.492160 1.506728
v -0.000000 0.306663 1.774314
v -0.000000 0.492160 1.630871
v -0.679001 0.306663 1.639253
v -0.624107 0.492160 1.506728
v -1.254630 0.306663 1.254630
v -1.153200 0.492160 1.153200
v -1.639253 0.306663 0.679001
v -1.506728 0.492160 0.624107
v -1.774314 0.306663 -0.000000
v -1.630871 0.492160 -0.000000
v -1.639253 0.306663 -0.679001
v -1.506728 0.492160 -0.624107
v -1.254630 0.306663 -1.254630
v -1.153200 0.492160 -1.153200
v -0.679001 0.306663 -1.639253
v -0.624107 0.492160 -1.506728
v -0.000000 0.039025 -1.700711
v 0.650834 0.039025 -1.571252
v 1.202584 0.039025 -1.202584
v 1.571252 0.039025 -0.650834
v 1.700711 0.039025 -0.000000
v 1.571252 0.039025 0.650834
v 1.202584 0.039025 1.202584
v 0.650834 0.039025 1.571252
v -0.000000 0.039025 1.700711
v -0.650834 0.039025 1.571252
v -1.202584 0.039025 1.202584
v -1.571252 0.039025 0.650834
v -1.700711 0.039025 -0.000000
v -1.571252 0.039025 -0.650834
v -1.202584 0.039025 -1.202584
v -0.650834 0.039025 -1.571252
v -0.000000 -0.095611 -1.628993
v 0.623389 -0.095611 -1.504993
v 1.151872 -0.095611 -1.151872
v 1.504993 -0.095611 -0.623389
v 1.628993 -0.095611 -0.000000
v 1.504993 -0.095611 0.623389
v 1.151872 -0.095611 1.151872
v 0.623389 -0.095611 1.504993
v -0.000000 -0.095611 1.628993
v -0.623389 -0.095611 1.504993
v -1.151872 -0.095611 1.151872
v -1.504993 -0.095611 0.623389
v -1.628993 -0.095611 -0.000000
v -1.504993 -0.095611 -0.623389
v -1.151872 -0.095611 -1.151872
v -0.623389 -0.095611 -1.504993
v 0.000000 0.534365 -1.413859
v 0.541061 0.534365 -1.306235
v 0.999749 0.534365 -0.999749
v 1.306235 0.534365 -0.541060
v 1.413859 0.534365 -0.000000
v 1.306235 0.534365 0.541060
v 0.999749 0.534365 0.999749
v 0.541061 0.534365 1.306235
v 0.000000 0.534365 1.413859
v -0.541060 0.534365 1.306235
v -0.999749 0.534365 0.999749
v -1.306235 0.534365 0.541060
v -1.413859 0.534365 -0.000000
v -1.306235 0.534365 -0.541060
v -0.999749 0.534365 -0.999749
v -0.541060 0.534365 -1.306235
v 0.000000 0.320233 -1.167470
v 0.446772 0.320233 -1.078601
v 0.825526 0.320233 -0.825526
v 1.078602 0.320233 -0.446771
v 1.167470 0.320233 0.000000
v 1.078602 0.320233 0.446771
v 0.825526 0.320233 0.825526
v 0.446772 0.320233 1.078601
v 0.000000 0.320233 1.167470
v -0.446771 0.320233 1.078601
v -0.825526 0.320233 0.825526
v -1.078601 0.320233 0.446771
v -1.167470 0.320233 0.000000
v -1.078601 0.320233 -0.446771
v -0.825526 0.320233 -0.825526
v -0.446771 0.320233 -1.078601
vn 0.1554 0.6043 -0.7815
vn 0.4427 0.6043 -0.6625
vn 0.6625 0.6043 -0.4427
vn 0.7815 0.6043 -0.1554
vn 0.7815 0.6043 0.1554
vn 0.6625 0.6043 0.4427
vn 0.4427 0.6043 0.6625
vn 0.1554 0.6043 0.7815
vn -0.1554 0.6043 0.7815
vn -0.4427 0.6043 0.6625
vn -0.6625 0.6043 0.4427
vn -0.7815 0.6043 0.1554
vn -0.7815 0.6043 -0.1554
vn -0.6625 0.6043 -0.4427
vn 0.1908 0.9809 -0.0379
vn -0.4427 0.6043 -0.6625
vn -0.1554 0.6043 -0.7815
vn 0.5364 -0.2604 -0.8028
vn 0.1729 -0.4631 0.8693
vn 0.5364 -0.2604 0.8028
vn -0.9469 -0.2604 0.1884
vn 0.9469 -0.2604 0.1884
vn -0.5364 -0.2604 0.8028
vn -0.5364 -0.2604 -0.8028
vn 0.8028 -0.2604 -0.5364
vn 0.1884 -0.2604 0.9469
vn 0.1884 -0.2604 -0.9469
vn -0.9469 -0.2604 -0.1884
vn 0.8028 -0.2604 0.5364
vn -0.8028 -0.2604 0.5364
vn -0.1884 -0.2604 -0.9469
vn 0.9469 -0.2604 -0.1884
vn -0.1884 -0.2604 0.9469
vn -0.8028 -0.2604 -0.5364
vn 0.1729 -0.4631 -0.8693
vn -0.1729 -0.4631 -0.8693
vn -0.1729 -0.4631 0.8693
vn 0.4924 -0.4631 -0.7370
vn -0.4924 -0.4631 0.7370
vn 0.7370 -0.4631 -0.4924
vn -0.7370 -0.4631 0.4924
vn 0.8693 -0.4631 -0.1729
vn -0.8693 -0.4631 0.1729
vn 0.8693 -0.4631 0.1729
vn -0.8693 -0.4631 -0.1729
vn 0.7370 -0.4631 0.4924
vn -0.7370 -0.4631 -0.4924
vn 0.4924 -0.4631 0.7370
vn -0.4924 -0.4631 -0.7370
vn -0.0000 -1.0000 -0.0000
vn -0.1294 0.7484 0.6505
vn -0.0379 0.9809 0.1908
vn -0.1617 0.9809 -0.1081
vn 0.1081 0.9809 -0.1617
vn 0.1081 0.9809 0.1617
vn -0.1908 0.9809 0.0379
vn 0.1908 0.9809 0.0379
vn -0.1081 0.9809 0.1617
vn -0.1081 0.9809 -0.1617
vn 0.1617 0.9809 -0.1081
vn 0.0379 0.9809 0.1908
vn 0.0379 0.9809 -0.1908
vn -0.1908 0.9809 -0.0379
vn 0.1617 0.9809 0.1081
vn -0.1617 0.9809 0.1081
vn -0.0379 0.9809 -0.1908
vn -0.0000 1.0000 -0.0000
vn 0.1294 0.7484 0.6505
vn 0.1294 0.7484 -0.6505
vn -0.3685 0.7484 0.5514
vn 0.3685 0.7484 -0.5514
vn -0.5514 0.7484 0.3685
vn 0.5514 0.7484 -0.3685
vn -0.6505 0.7484 0.1294
vn 0.6505 0.7484 -0.1294
vn -0.6505 0.7484 -0.1294
vn 0.6505 0.7484 0.1294
vn -0.5514 0.7484 -0.3685
vn 0.5514 0.7484 0.3685
vn -0.3685 0.7484 -0.5514
vn 0.3685 0.7484 0.5514
vn -0.1294 0.7484 -0.6505
vt 1.000000 0.500000
vt 1.000000 1.000000
vt 0.937500 1.000000
vt 0.937500 0.500000
vt 0.875000 1.000000
vt 0.875000 0.500000
vt 0.812500 1.000000
vt 0.812500 0.500000
vt 0.750000 1.000000
vt 0.750000 0.500000
vt 0.687500 1.000000
vt 0.687500 0.500000
vt 0.625000 1.000000
vt 0.625000 0.500000
vt 0.562500 1.000000
vt 0.562500 0.500000
vt 0.500000 1.000000
vt 0.500000 0.500000
vt 0.437500 1.000000
vt 0.437500 0.500000
vt 0.375000 1.000000
vt 0.375000 0.500000
vt 0.312500 1.000000
vt 0.312500 0.500000
vt 0.250000 1.000000
vt 0.250000 0.500000
vt 0.187500 1.000000
vt 0.187500 0.500000
vt 0.125000 1.000000
vt 0.125000 0.500000
vt 0.062500 1.000000
vt 0.062500 0.500000
vt 0.000000 1.000000
vt 0.000000 0.500000
vt 0.341844 0.471731
vt 0.250000 0.490000
vt 0.158156 0.471731
vt 0.080294 0.419706
vt 0.028269 0.341844
vt 0.010000 0.250000
vt 0.028269 0.158156
vt 0.080294 0.080294
vt 0.158156 0.028269
vt 0.250000 0.010000
vt 0.341844 0.028269
vt 0.419706 0.080294
vt 0.471731 0.158156
vt 0.490000 0.250000
vt 0.471731 0.341844
vt 0.419706 0.419706
s 0
f 1/1/1 2/2/1 4/3/1 3/4/1
f 3/4/2 4/3/2 6/5/2 5/6/2
f 5/6/3 6/5/3 8/7/3 7/8/3
f 7/8/4 8/7/4 10/9/4 9/10/4
f 9/10/5 10/9/5 12/11/5 11/12/5
f 11/12/6 12/11/6 14/13/6 13/14/6
f 13/14/7 14/13/7 16/15/7 15/16/7
f 15/16/8 16/15/8 18/17/8 17/18/8
f 17/18/9 18/17/9 20/19/9 19/20/9
f 19/20/10 20/19/10 22/21/10 21/22/10
f 21/22/11 22/21/11 24/23/11 23/24/11
f 23/24/12 24/23/12 26/25/12 25/26/12
f 25/26/13 26/25/13 28/27/13 27/28/13
f 27/28/14 28/27/14 30/29/14 29/30/14
f 10/9/15 8/7/15 68/7/15 69/9/15
f 29/30/16 30/29/16 32/31/16 31/32/16
f 31/32/17 32/31/17 2/33/17 1/34/17
f 3/4/18 5/6/18 35/6/18 34/4/18
f 40/16/19 41/18/19 57/18/19 56/16/19
f 13/14/20 15/16/20 40/16/20 39/14/20
f 23/24/21 25/26/21 45/26/21 44/24/21
f 9/10/22 11/12/22 38/12/22 37/10/22
f 19/20/23 21/22/23 43/22/23 42/20/23
f 29/30/24 31/32/24 48/32/24 47/30/24
f 5/6/25 7/8/25 36/8/25 35/6/25
f 15/16/26 17/18/26 41/18/26 40/16/26
f 1/1/27 3/4/27 34/4/27 33/1/27
f 25/26/28 27/28/28 46/28/28 45/26/28
f 11/12/29 13/14/29 39/14/29 38/12/29
f 21/22/30 23/24/30 44/24/30 43/22/30
f 31/32/31 1/34/31 33/34/31 48/32/31
f 7/8/32 9/10/32 37/10/32 36/8/32
f 17/18/33 19/20/33 42/20/33 41/18/33
f 27/28/34 29/30/34 47/30/34 46/28/34
f 33/1/35 34/4/35 50/4/35 49/1/35
f 48/32/36 33/34/36 49/34/36 64/32/36
f 41/18/37 42/20/37 58/20/37 57/18/37
f 34/4/38 35/6/38 51/6/38 50/4/38
f 42/20/39 43/22/39 59/22/39 58/20/39
f 35/6/40 36/8/40 52/8/40 51/6/40
f 43/22/41 44/24/41 60/24/41 59/22/41
f 36/8/42 37/10/42 53/10/42 52/8/42
f 44/24/43 45/26/43 61/26/43 60/24/43
f 37/10/44 38/12/44 54/12/44 53/10/44
f 45/26/45 46/28/45 62/28/45 61/26/45
f 38/12/46 39/14/46 55/14/46 54/12/46
f 46/28/47 47/30/47 63/30/47 62/28/47
f 39/14/48 40/16/48 56/16/48 55/14/48
f 47/30/49 48/32/49 64/32/49 63/30/49
f 49/34/50 50/4/50 51/6/50 52/8/50 53/10/50 54/12/50 55/14/50 56/16/50 57/18/50 58/20/50 59/22/50 60/24/50 61/26/50 62/28/50 63/30/50 64/32/50
f 66/3/51 65/2/51 81/2/51 82/3/51
f 20/19/52 18/17/52 73/17/52 74/19/52
f 30/29/53 28/27/53 78/27/53 79/29/53
f 6/5/54 4/3/54 66/3/54 67/5/54
f 16/15/55 14/13/55 71/13/55 72/15/55
f 26/25/56 24/23/56 76/23/56 77/25/56
f 12/11/57 10/9/57 69/9/57 70/11/57
f 22/21/58 20/19/58 74/19/58 75/21/58
f 32/31/59 30/29/59 79/29/59 80/31/59
f 8/7/60 6/5/60 67/5/60 68/7/60
f 18/17/61 16/15/61 72/15/61 73/17/61
f 4/3/62 2/2/62 65/2/62 66/3/62
f 28/27/63 26/25/63 77/25/63 78/27/63
f 14/13/64 12/11/64 70/11/64 71/13/64
f 24/23/65 22/21/65 75/21/65 76/23/65
f 2/33/66 32/31/66 80/31/66 65/33/66
f 82/35/67 81/36/67 96/37/67 95/38/67 94/39/67 93/40/67 92/41/67 91/42/67 90/43/67 89/44/67 88/45/67 87/46/67 86/47/67 85/48/67 84/49/67 83/50/67
f 65/33/68 80/31/68 96/31/68 81/33/68
f 74/19/69 73/17/69 89/17/69 90/19/69
f 67/5/70 66/3/70 82/3/70 83/5/70
f 75/21/71 74/19/71 90/19/71 91/21/71
f 68/7/72 67/5/72 83/5/72 84/7/72
f 76/23/73 75/21/73 91/21/73 92/23/73
f 69/9/74 68/7/74 84/7/74 85/9/74
f 77/25/75 76/23/75 92/23/75 93/25/75
f 70/11/76 69/9/76 85/9/76 86/11/76
f 78/27/77 77/25/77 93/25/77 94/27/77
f 71/13/78 70/11/78 86/11/78 87/13/78
f 79/29/79 78/27/79 94/27/79 95/29/79
f 72/15/80 71/13/80 87/13/80 88/15/80
f 80/31/81 79/29/81 95/29/81 96/31/81
f 73/17/82 72/15/82 88/15/82 89/17/82
