# Blender 5.0.1
# www.blender.org
mtllib cratere2.mtl
o cratere2
v 0.000000 0.819527 -1.506935
v 0.000000 1.066413 -1.297371
v 0.576679 0.819527 -1.392226
v 0.496482 1.066413 -1.198615
v 1.065564 0.819527 -1.065564
v 0.917380 1.066413 -0.917380
v 1.392226 0.819527 -0.576679
v 1.198615 1.066413 -0.496482
v 1.506935 0.819527 -0.000000
v 1.297371 1.066413 -0.000000
v 1.392226 0.819527 0.576679
v 1.198615 1.066413 0.496482
v 1.065564 0.819527 1.065564
v 0.917380 1.066413 0.917380
v 0.576679 0.819527 1.392226
v 0.496482 1.066413 1.198615
v 0.000000 0.819527 1.506935
v 0.000000 1.066413 1.297371
v -0.576679 0.819527 1.392226
v -0.496482 1.066413 1.198615
v -1.065564 0.819527 1.065564
v -0.917380 1.066413 0.917380
v -1.392226 0.819527 0.576679
v -1.198615 1.066413 0.496482
v -1.506935 0.819527 -0.000000
v -1.297371 1.066413 -0.000000
v -1.392226 0.819527 -0.576679
v -1.198615 1.066413 -0.496482
v -1.065564 0.819527 -1.065564
v -0.917380 1.066413 -0.917380
v -0.576679 0.819527 -1.392226
v -0.496482 1.066413 -1.198615
v 0.000000 0.595936 -1.444423
v 0.552757 0.595936 -1.334473
v 1.021361 0.595936 -1.021361
v 1.334473 0.595936 -0.552757
v 1.444423 0.595936 -0.000000
v 1.334473 0.595936 0.552757
v 1.021361 0.595936 1.021361
v 0.552757 0.595936 1.334473
v 0.000000 0.595936 1.444423
v -0.552757 0.595936 1.334473
v -1.021361 0.595936 1.021361
v -1.334473 0.595936 0.552757
v -1.444423 0.595936 -0.000000
v -1.334473 0.595936 -0.552757
v -1.021361 0.595936 -1.021361
v -0.552757 0.595936 -1.334473
v 0.000000 0.495246 -1.383513
v 0.529448 0.495246 -1.278199
v 0.978291 0.495246 -0.978291
v 1.278199 0.495246 -0.529448
v 1.383513 0.495246 -0.000000
v 1.278199 0.495246 0.529448
v 0.978291 0.495246 0.978291
v 0.529448 0.495246 1.278199
v 0.000000 0.495246 1.383513
v -0.529448 0.495246 1.278199
v -0.978291 0.495246 0.978291
v -1.278199 0.495246 0.529448
v -1.383513 0.495246 -0.000000
v -1.278199 0.495246 -0.529448
v -0.978291 0.495246 -0.978291
v -0.529448 0.495246 -1.278199
v 0.000000 -0.093276 -1.383513
v 0.529448 -0.093276 -1.278199
v 0.978291 -0.093276 -0.978291
v 1.278199 -0.093276 -0.529448
v 1.383513 -0.093276 -0.000000
v 1.278199 -0.093276 0.529448
v 0.978291 -0.093276 0.978291
v 0.529448 -0.093276 1.278199
v 0.000000 -0.093276 1.383513
v -0.529448 -0.093276 1.278199
v -0.978291 -0.093276 0.978291
v -1.278199 -0.093276 0.529448
v -1.383513 -0.093276 -0.000000
v -1.278199 -0.093276 -0.529448
v -0.978291 -0.093276 -0.978291
v -0.529448 -0.093276 -1.278199
v 0.000000 1.097406 -1.124736
v 0.430418 1.097406 -1.039121
v 0.795309 1.097406 -0.795309
v 1.039121 1.097406 -0.430418
v 1.124737 1.097406 -0.000000
v 1.039121 1.097406 0.430418
v 0.795309 1.097406 0.795309
v 0.430418 1.097406 1.039121
v 0.000000 1.097406 1.124736
v -0.430418 1.097406 1.039121
v -0.795309 1.097406 0.795309
v -1.039121 1.097406 0.430418
v -1.124736 1.097406 -0.000000
v -1.039121 1.097406 -0.430418
v -0.795309 1.097406 -0.795309
v -0.430418 1.097406 -1.039121
v -0.000000 0.858735 -0.953247
v 0.364792 0.858735 -0.880686
v 0.674048 0.858735 -0.674048
v 0.880686 0.858735 -0.364792
v 0.953247 0.858735 -0.000000
v 0.880686 0.858735 0.364792
v 0.674048 0.858735 0.674048
v 0.364792 0.858735 0.880686
v -0.000000 0.858735 0.953247
v -0.364792 0.858735 0.880686
v -0.674048 0.858735 0.674048
v -0.880686 0.858735 0.364792
v -0.953247 0.858735 -0.000000
v -0.880686 0.858735 -0.364792
v -0.674048 0.858735 -0.674048
v -0.364792 0.858735 -0.880686
v -1.221259 0.279558 -0.505862
v -1.321882 0.279558 -0.000000
v 0.934712 0.279558 0.934712
v 1.221259 0.279558 0.505862
v -0.934712 0.279558 -0.934711
v 0.505862 0.279558 1.221259
v -0.505862 0.279558 -1.221259
v 0.000000 0.279558 1.321882
v 0.505862 0.279558 -1.221259
v 0.000000 0.279558 -1.321882
v -0.505862 0.279558 1.221259
v 0.934712 0.279558 -0.934711
v -0.934712 0.279558 0.934712
v 1.221259 0.279558 -0.505862
v -1.221259 0.279558 0.505862
v 1.321882 0.279558 -0.000000
vn 0.1499 0.6398 -0.7538
vn 0.4270 0.6398 -0.6390
vn 0.6390 0.6398 -0.4270
vn 0.7538 0.6398 -0.1499
vn 0.7538 0.6398 0.1499
vn 0.6390 0.6398 0.4270
vn 0.4270 0.6398 0.6390
vn 0.1499 0.6398 0.7538
vn -0.1499 0.6398 0.7538
vn -0.4270 0.6398 0.6390
vn -0.6390 0.6398 0.4270
vn -0.7538 0.6398 0.1499
vn -0.7538 0.6398 -0.1499
vn -0.6390 0.6398 -0.4270
vn 0.1766 0.9837 -0.0351
vn -0.4270 0.6398 -0.6390
vn -0.1499 0.6398 -0.7538
vn 0.5358 -0.2644 -0.8019
vn 0.1678 -0.5103 0.8435
vn 0.5358 -0.2644 0.8019
vn -0.9459 -0.2644 0.1881
vn 0.9459 -0.2644 0.1881
vn -0.5358 -0.2644 0.8019
vn -0.5358 -0.2644 -0.8019
vn 0.8019 -0.2644 -0.5358
vn 0.1881 -0.2644 0.9459
vn 0.1881 -0.2644 -0.9459
vn -0.9459 -0.2644 -0.1881
vn 0.8019 -0.2644 0.5358
vn -0.8019 -0.2644 0.5358
vn -0.1881 -0.2644 -0.9459
vn 0.9459 -0.2644 -0.1881
vn -0.1881 -0.2644 0.9459
vn -0.8019 -0.2644 -0.5358
vn -0.9681 0.1600 -0.1926
vn 0.1678 -0.5103 -0.8435
vn -0.1678 -0.5103 -0.8435
vn -0.1678 -0.5103 0.8435
vn 0.4778 -0.5103 -0.7151
vn -0.4778 -0.5103 0.7151
vn 0.7151 -0.5103 -0.4778
vn -0.7151 -0.5103 0.4778
vn 0.8435 -0.5103 -0.1678
vn -0.8435 -0.5103 0.1678
vn 0.8435 -0.5103 0.1678
vn -0.8435 -0.5103 -0.1678
vn 0.7151 -0.5103 0.4778
vn -0.7151 -0.5103 -0.4778
vn 0.4778 -0.5103 0.7151
vn -0.4778 -0.5103 -0.7151
vn -0.0000 -1.0000 -0.0000
vn 0.8208 0.1600 0.5484
vn -0.8208 0.1600 -0.5484
vn 0.5484 0.1600 0.8208
vn -0.5484 0.1600 -0.8208
vn 0.1926 0.1600 0.9681
vn 0.1926 0.1600 -0.9681
vn -0.1926 0.1600 -0.9681
vn -0.1926 0.1600 0.9681
vn 0.5484 0.1600 -0.8208
vn -0.5484 0.1600 0.8208
vn 0.8208 0.1600 -0.5484
vn -0.8208 0.1600 0.5484
vn 0.9681 0.1600 -0.1926
vn -0.9681 0.1600 0.1926
vn 0.9681 0.1600 0.1926
vn -0.1595 0.5760 0.8017
vn -0.0351 0.9837 0.1766
vn -0.1497 0.9837 -0.1000
vn 0.1000 0.9837 -0.1497
vn 0.1000 0.9837 0.1497
vn -0.1766 0.9837 0.0351
vn 0.1766 0.9837 0.0351
vn -0.1000 0.9837 0.1497
vn -0.1000 0.9837 -0.1497
vn 0.1497 0.9837 -0.1000
vn 0.0351 0.9837 0.1766
vn 0.0351 0.9837 -0.1766
vn -0.1766 0.9837 -0.0351
vn 0.1497 0.9837 0.1000
vn -0.1497 0.9837 0.1000
vn -0.0351 0.9837 -0.1766
vn -0.0000 1.0000 -0.0000
vn 0.1595 0.5760 0.8017
vn 0.1595 0.5760 -0.8017
vn -0.4541 0.5760 0.6797
vn 0.4541 0.5760 -0.6797
vn -0.6797 0.5760 0.4541
vn 0.6797 0.5760 -0.4541
vn -0.8017 0.5760 0.1595
vn 0.8017 0.5760 -0.1595
vn -0.8017 0.5760 -0.1595
vn 0.8017 0.5760 0.1595
vn -0.6797 0.5760 -0.4541
vn 0.6797 0.5760 0.4541
vn -0.4541 0.5760 -0.6797
vn 0.4541 0.5760 0.6797
vn -0.1595 0.5760 -0.8017
vn 0.9444 -0.2699 0.1879
vn -0.9444 -0.2699 0.1879
vn 0.9444 -0.2699 -0.1879
vn -0.8006 -0.2699 0.5350
vn 0.8006 -0.2699 -0.5350
vn -0.5350 -0.2699 0.8006
vn 0.5350 -0.2699 -0.8006
vn -0.1879 -0.2699 0.9444
vn -0.1879 -0.2699 -0.9444
vn 0.1879 -0.2699 -0.9444
vn 0.1879 -0.2699 0.9444
vn -0.5350 -0.2699 -0.8006
vn 0.5350 -0.2699 0.8006
vn -0.8006 -0.2699 -0.5350
vn 0.8006 -0.2699 0.5350
vn -0.9444 -0.2699 -0.1879
vt 1.000000 0.500000
vt 1.000000 1.000000
vt 0.937500 1.000000
vt 0.937500 0.500000
vt 0.875000 1.000000
vt 0.875000 0.500000
vt 0.812500 1.000000
vt 0.812500 0.500000
vt 0.750000 1.000000
vt 0.750000 0.500000
vt 0.687500 1.000000
vt 0.687500 0.500000
vt 0.625000 1.000000
vt 0.625000 0.500000
vt 0.562500 1.000000
vt 0.562500 0.500000
vt 0.500000 1.000000
vt 0.500000 0.500000
vt 0.437500 1.000000
vt 0.437500 0.500000
vt 0.375000 1.000000
vt 0.375000 0.500000
vt 0.312500 1.000000
vt 0.312500 0.500000
vt 0.250000 1.000000
vt 0.250000 0.500000
vt 0.187500 1.000000
vt 0.187500 0.500000
vt 0.125000 1.000000
vt 0.125000 0.500000
vt 0.062500 1.000000
vt 0.062500 0.500000
vt 0.000000 1.000000
vt 0.000000 0.500000
vt 0.750000 0.490000
vt 0.841844 0.471731
vt 0.919706 0.419706
vt 0.971731 0.341844
vt 0.990000 0.250000
vt 0.971731 0.158156
vt 0.919706 0.080294
vt 0.841844 0.028269
vt 0.750000 0.010000
vt 0.658156 0.028269
vt 0.580294 0.080294
vt 0.528269 0.158156
vt 0.510000 0.250000
vt 0.528269 0.341844
vt 0.580294 0.419706
vt 0.658156 0.471731
vt 0.341844 0.471731
vt 0.250000 0.490000
vt 0.158156 0.471731
vt 0.080294 0.419706
vt 0.028269 0.341844
vt 0.010000 0.250000
vt 0.028269 0.158156
vt 0.080294 0.080294
vt 0.158156 0.028269
vt 0.250000 0.010000
vt 0.341844 0.028269
vt 0.419706 0.080294
vt 0.471731 0.158156
vt 0.490000 0.250000
vt 0.471731 0.341844
vt 0.419706 0.419706
s 0
f 1/1/1 2/2/1 4/3/1 3/4/1
f 3/4/2 4/3/2 6/5/2 5/6/2
f 5/6/3 6/5/3 8/7/3 7/8/3
f 7/8/4 8/7/4 10/9/4 9/10/4
f 9/10/5 10/9/5 12/11/5 11/12/5
f 11/12/6 12/11/6 14/13/6 13/14/6
f 13/14/7 14/13/7 16/15/7 15/16/7
f 15/16/8 16/15/8 18/17/8 17/18/8
f 17/18/9 18/17/9 20/19/9 19/20/9
f 19/20/10 20/19/10 22/21/10 21/22/10
f 21/22/11 22/21/11 24/23/11 23/24/11
f 23/24/12 24/23/12 26/25/12 25/26/12
f 25/26/13 26/25/13 28/27/13 27/28/13
f 27/28/14 28/27/14 30/29/14 29/30/14
f 10/9/15 8/7/15 84/7/15 85/9/15
f 29/30/16 30/29/16 32/31/16 31/32/16
f 31/32/17 32/31/17 2/33/17 1/34/17
f 3/4/18 5/6/18 35/6/18 34/4/18
f 40/16/19 41/18/19 57/18/19 56/16/19
f 13/14/20 15/16/20 40/16/20 39/14/20
f 23/24/21 25/26/21 45/26/21 44/24/21
f 9/10/22 11/12/22 38/12/22 37/10/22
f 19/20/23 21/22/23 43/22/23 42/20/23
f 29/30/24 31/32/24 48/32/24 47/30/24
f 5/6/25 7/8/25 36/8/25 35/6/25
f 15/16/26 17/18/26 41/18/26 40/16/26
f 1/1/27 3/4/27 34/4/27 33/1/27
f 25/26/28 27/28/28 46/28/28 45/26/28
f 11/12/29 13/14/29 39/14/29 38/12/29
f 21/22/30 23/24/30 44/24/30 43/22/30
f 31/32/31 1/34/31 33/34/31 48/32/31
f 7/8/32 9/10/32 37/10/32 36/8/32
f 17/18/33 19/20/33 42/20/33 41/18/33
f 27/28/34 29/30/34 47/30/34 46/28/34
f 114/26/35 113/28/35 78/28/35 77/26/35
f 33/1/36 34/4/36 50/4/36 49/1/36
f 48/32/37 33/34/37 49/34/37 64/32/37
f 41/18/38 42/20/38 58/20/38 57/18/38
f 34/4/39 35/6/39 51/6/39 50/4/39
f 42/20/40 43/22/40 59/22/40 58/20/40
f 35/6/41 36/8/41 52/8/41 51/6/41
f 43/22/42 44/24/42 60/24/42 59/22/42
f 36/8/43 37/10/43 53/10/43 52/8/43
f 44/24/44 45/26/44 61/26/44 60/24/44
f 37/10/45 38/12/45 54/12/45 53/10/45
f 45/26/46 46/28/46 62/28/46 61/26/46
f 38/12/47 39/14/47 55/14/47 54/12/47
f 46/28/48 47/30/48 63/30/48 62/28/48
f 39/14/49 40/16/49 56/16/49 55/14/49
f 47/30/50 48/32/50 64/32/50 63/30/50
f 65/35/51 66/36/51 67/37/51 68/38/51 69/39/51 70/40/51 71/41/51 72/42/51 73/43/51 74/44/51 75/45/51 76/46/51 77/47/51 78/48/51 79/49/51 80/50/51
f 116/12/52 115/14/52 71/14/52 70/12/52
f 113/28/53 117/30/53 79/30/53 78/28/53
f 115/14/54 118/16/54 72/16/54 71/14/54
f 117/30/55 119/32/55 80/32/55 79/30/55
f 118/16/56 120/18/56 73/18/56 72/16/56
f 122/1/57 121/4/57 66/4/57 65/1/57
f 119/32/58 122/34/58 65/34/58 80/32/58
f 120/18/59 123/20/59 74/20/59 73/18/59
f 121/4/60 124/6/60 67/6/60 66/4/60
f 123/20/61 125/22/61 75/22/61 74/20/61
f 124/6/62 126/8/62 68/8/62 67/6/62
f 125/22/63 127/24/63 76/24/63 75/22/63
f 126/8/64 128/10/64 69/10/64 68/8/64
f 127/24/65 114/26/65 77/26/65 76/24/65
f 128/10/66 116/12/66 70/12/66 69/10/66
f 82/3/67 81/2/67 97/2/67 98/3/67
f 20/19/68 18/17/68 89/17/68 90/19/68
f 30/29/69 28/27/69 94/27/69 95/29/69
f 6/5/70 4/3/70 82/3/70 83/5/70
f 16/15/71 14/13/71 87/13/71 88/15/71
f 26/25/72 24/23/72 92/23/72 93/25/72
f 12/11/73 10/9/73 85/9/73 86/11/73
f 22/21/74 20/19/74 90/19/74 91/21/74
f 32/31/75 30/29/75 95/29/75 96/31/75
f 8/7/76 6/5/76 83/5/76 84/7/76
f 18/17/77 16/15/77 88/15/77 89/17/77
f 4/3/78 2/2/78 81/2/78 82/3/78
f 28/27/79 26/25/79 93/25/79 94/27/79
f 14/13/80 12/11/80 86/11/80 87/13/80
f 24/23/81 22/21/81 91/21/81 92/23/81
f 2/33/82 32/31/82 96/31/82 81/33/82
f 98/51/83 97/52/83 112/53/83 111/54/83 110/55/83 109/56/83 108/57/83 107/58/83 106/59/83 105/60/83 104/61/83 103/62/83 102/63/83 101/64/83 100/65/83 99/66/83
f 81/33/84 96/31/84 112/31/84 97/33/84
f 90/19/85 89/17/85 105/17/85 106/19/85
f 83/5/86 82/3/86 98/3/86 99/5/86
f 91/21/87 90/19/87 106/19/87 107/21/87
f 84/7/88 83/5/88 99/5/88 100/7/88
f 92/23/89 91/21/89 107/21/89 108/23/89
f 85/9/90 84/7/90 100/7/90 101/9/90
f 93/25/91 92/23/91 108/23/91 109/25/91
f 86/11/92 85/9/92 101/9/92 102/11/92
f 94/27/93 93/25/93 109/25/93 110/27/93
f 87/13/94 86/11/94 102/11/94 103/13/94
f 95/29/95 94/27/95 110/27/95 111/29/95
f 88/15/96 87/13/96 103/13/96 104/15/96
f 96/31/97 95/29/97 111/29/97 112/31/97
f 89/17/98 88/15/98 104/15/98 105/17/98
f 53/10/99 54/12/99 116/12/99 128/10/99
f 60/24/100 61/26/100 114/26/100 127/24/100
f 52/8/101 53/10/101 128/10/101 126/8/101
f 59/22/102 60/24/102 127/24/102 125/22/102
f 51/6/103 52/8/103 126/8/103 124/6/103
f 58/20/104 59/22/104 125/22/104 123/20/104
f 50/4/105 51/6/105 124/6/105 121/4/105
f 57/18/106 58/20/106 123/20/106 120/18/106
f 64/32/107 49/34/107 122/34/107 119/32/107
f 49/1/108 50/4/108 121/4/108 122/1/108
f 56/16/109 57/18/109 120/18/109 118/16/109
f 63/30/110 64/32/110 119/32/110 117/30/110
f 55/14/111 56/16/111 118/16/111 115/14/111
f 62/28/112 63/30/112 117/30/112 113/28/112
f 54/12/113 55/14/113 115/14/113 116/12/113
f 61/26/114 62/28/114 113/28/114 114/26/114
