# Blender 5.0.1
# www.blender.org
mtllib pente1.mtl
o PENTE_PLATE
v 90.789619 5.507997 9.971775
v 91.681404 4.201947 12.617035
v 94.488724 2.902446 14.925880
v 97.586792 2.393648 17.168409
v 97.561348 2.188120 19.856628
v 96.600403 1.924057 22.160126
v 94.885574 0.665695 24.641104
v 92.339584 -0.949780 27.517265
v 89.479782 -2.438322 31.501606
v 88.625084 -3.998751 36.898632
v 90.400352 -6.533474 44.665913
v 90.447487 6.450458 6.536102
v 101.856689 4.909790 9.926033
v 101.298866 3.724695 12.580540
v 101.616425 2.909440 14.926411
v 103.367920 2.433220 17.171436
v 104.633087 2.192401 19.800636
v 103.862534 2.137006 22.176407
v 101.948555 2.298300 24.765923
v 101.557205 2.173081 27.756021
v 102.820572 1.085349 31.771004
v 107.450836 0.272709 37.225201
v 108.991547 -1.830761 45.025455
v 102.013023 8.239410 6.672874
v 108.079819 7.286967 10.107777
v 106.388306 5.886838 12.745850
v 106.519287 4.523693 15.049824
v 108.068451 4.095311 17.298508
v 108.939415 3.325665 19.934071
v 108.523956 2.644284 22.215189
v 107.050919 2.744209 24.800013
v 107.286064 2.862229 27.808708
v 109.881180 1.516447 31.803963
v 113.946136 -0.091590 37.197346
v 113.530716 -1.275268 45.067924
v 110.236618 9.489715 6.768459
v 81.845535 5.982629 10.008068
v 82.146957 4.941804 12.673603
v 81.760475 4.309899 15.033485
v 81.539734 3.874850 17.281656
v 80.041862 3.668282 19.969797
v 79.229538 3.490374 22.279882
v 79.741333 3.213953 24.835932
v 80.825485 2.719056 27.797771
v 82.002640 1.814939 31.826790
v 80.616257 0.496606 37.242325
v 78.563995 -1.415870 45.057182
v 79.738914 7.598301 6.623863
v 117.091408 9.927975 10.309696
v 117.091408 8.346952 12.933933
v 117.091408 7.059108 15.243664
v 117.091408 5.623518 17.415342
v 117.091415 3.831504 19.982264
v 117.091415 2.256496 22.185535
v 117.091415 0.905500 24.659430
v 117.091415 0.336643 27.615614
v 117.199135 0.231920 31.705750
v 116.861473 -0.292526 37.181984
v 116.549530 -0.415466 45.133656
v 117.091408 10.520877 6.847298
v 69.394562 10.099246 10.322807
v 69.394562 8.394427 12.937576
v 69.394569 6.609298 15.209290
v 69.394569 4.905563 17.360464
v 69.394569 3.167504 19.931511
v 69.394569 2.172027 22.179090
v 69.394569 1.803621 24.728109
v 69.394569 1.549738 27.708374
v 69.394569 1.015250 31.765656
v 69.394577 0.037829 37.207253
v 69.394577 -1.586266 45.044159
v 69.394562 11.199817 6.899223
v 109.250748 -5.073926 58.661331
v 111.010918 -2.334486 61.636009
v 115.863075 -1.566643 61.248722
v 91.109131 -8.689290 51.394505
v 77.942780 -3.581536 51.785019
v 69.761139 -2.884384 51.838326
v 89.935905 -10.505854 60.562881
v 81.580109 -6.097324 60.899422
v 69.761139 -3.979039 61.047379
v 89.935905 -12.085237 60.442127
v 81.580109 -12.420872 60.482384
v 69.761139 -9.093313 60.656368
v 108.687370 -7.592188 63.168152
v 113.532944 -4.986074 60.992104
v 116.043793 -1.001159 53.332642
v 112.226524 -1.810900 53.454571
v 109.155334 -3.841306 53.135029
vn -0.0036 0.9759 0.2181
vn -0.2264 0.9192 0.3221
vn -0.2805 0.9494 0.1413
vn -0.0031 0.9964 0.0844
vn -0.0464 0.8413 0.5386
vn 0.0487 0.9051 0.4224
vn -0.2792 0.9289 0.2434
vn -0.0150 0.9979 0.0626
vn 0.0266 0.9167 0.3986
vn -0.2308 0.9307 0.2838
vn -0.1280 0.9843 0.1214
vn -0.2911 0.9107 0.2929
vn -0.2081 0.7840 0.5849
vn -0.3650 0.8883 0.2788
vn -0.0846 0.9413 0.3267
vn -0.1809 0.9775 0.1086
vn -0.3305 0.8420 0.4264
vn -0.0049 0.9751 0.2215
vn -0.0957 0.9890 -0.1126
vn -0.3054 0.8648 0.3984
vn -0.0172 0.9783 0.2064
vn -0.1042 0.9946 -0.0015
vn 0.0871 0.9879 0.1281
vn 0.0928 0.9361 0.3392
vn 0.4768 0.8198 0.3171
vn 0.1221 0.9409 0.3159
vn 0.0999 0.9847 0.1429
vn 0.4292 0.8665 0.2549
vn 0.2165 0.8995 0.3794
vn 0.0881 0.9910 0.1009
vn 0.0799 0.9424 0.3248
vn 0.0623 0.9180 0.3917
vn 0.3717 0.8653 0.3364
vn -0.0068 0.8935 0.4490
vn -0.2074 0.8457 0.4918
vn 0.1437 0.9793 0.1428
vn 0.1168 0.9556 0.2704
vn -0.1893 0.8793 0.4371
vn -0.1107 0.9909 0.0767
vn 0.2154 0.9744 0.0652
vn -0.1091 0.8844 0.4537
vn -0.2195 0.9249 0.3105
vn -0.2350 0.8762 0.4208
vn 0.2177 0.9707 0.1014
vn -0.0525 0.9784 0.2002
vn -0.1341 0.9814 0.1374
vn 0.1254 0.8898 0.4389
vn -0.0306 0.9758 0.2165
vn -0.1177 0.9824 0.1453
vn 0.0224 0.9356 0.3523
vn 0.3153 0.9110 0.2659
vn 0.2685 0.8608 0.4323
vn -0.0814 0.9792 0.1860
vn -0.0876 0.9684 0.2337
vn 0.2052 0.8605 0.4662
vn -0.1759 0.9831 0.0513
vn -0.7130 0.7005 0.0315
vn 0.0300 0.9682 0.2486
vn 0.3707 0.8850 0.2818
vn 0.1391 0.9765 0.1648
vn 0.4037 0.9009 0.1591
vn -0.0026 -0.0705 0.9975
vn 0.0059 -0.0679 0.9977
vn 0.2535 0.0062 0.9673
vn -0.8923 0.4322 0.1300
vn -0.2041 0.7283 0.6542
vn -0.2591 0.9388 0.2271
vn -0.3245 0.9379 0.1223
vn -0.2368 0.9708 0.0398
vt 0.000000 0.000000
s 0
f 3/1/1 4/1/1 16/1/1 15/1/1
f 10/1/2 11/1/2 23/1/2 22/1/2
f 7/1/3 8/1/3 20/1/3 19/1/3
f 4/1/4 5/1/4 17/1/4 16/1/4
f 12/1/5 1/1/5 13/1/5 24/1/5
f 1/1/6 2/1/6 14/1/6 13/1/6
f 8/1/7 9/1/7 21/1/7 20/1/7
f 5/1/8 6/1/8 18/1/8 17/1/8
f 2/1/9 3/1/9 15/1/9 14/1/9
f 9/1/10 10/1/10 22/1/10 21/1/10
f 6/1/11 7/1/11 19/1/11 18/1/11
f 16/1/12 17/1/12 29/1/12 28/1/12
f 24/1/13 13/1/13 25/1/13 36/1/13
f 13/1/14 14/1/14 26/1/14 25/1/14
f 20/1/15 21/1/15 33/1/15 32/1/15
f 17/1/16 18/1/16 30/1/16 29/1/16
f 14/1/17 15/1/17 27/1/17 26/1/17
f 21/1/18 22/1/18 34/1/18 33/1/18
f 18/1/19 19/1/19 31/1/19 30/1/19
f 15/1/20 16/1/20 28/1/20 27/1/20
f 22/1/21 23/1/21 35/1/21 34/1/21
f 19/1/22 20/1/22 32/1/22 31/1/22
f 6/1/23 5/1/23 41/1/23 42/1/23
f 3/1/24 2/1/24 38/1/24 39/1/24
f 10/1/25 9/1/25 45/1/25 46/1/25
f 7/1/26 6/1/26 42/1/26 43/1/26
f 4/1/27 3/1/27 39/1/27 40/1/27
f 11/1/28 10/1/28 46/1/28 47/1/28
f 8/1/29 7/1/29 43/1/29 44/1/29
f 5/1/30 4/1/30 40/1/30 41/1/30
f 1/1/31 12/1/31 48/1/31 37/1/31
f 2/1/32 1/1/32 37/1/32 38/1/32
f 9/1/33 8/1/33 44/1/33 45/1/33
f 29/1/34 30/1/34 54/1/34 53/1/34
f 26/1/35 27/1/35 51/1/35 50/1/35
f 33/1/36 34/1/36 58/1/36 57/1/36
f 30/1/37 31/1/37 55/1/37 54/1/37
f 27/1/38 28/1/38 52/1/38 51/1/38
f 34/1/39 35/1/39 59/1/39 58/1/39
f 31/1/40 32/1/40 56/1/40 55/1/40
f 28/1/41 29/1/41 53/1/41 52/1/41
f 36/1/42 25/1/42 49/1/42 60/1/42
f 25/1/43 26/1/43 50/1/43 49/1/43
f 32/1/44 33/1/44 57/1/44 56/1/44
f 46/1/45 45/1/45 69/1/45 70/1/45
f 43/1/46 42/1/46 66/1/46 67/1/46
f 40/1/47 39/1/47 63/1/47 64/1/47
f 47/1/48 46/1/48 70/1/48 71/1/48
f 44/1/49 43/1/49 67/1/49 68/1/49
f 41/1/50 40/1/50 64/1/50 65/1/50
f 37/1/51 48/1/51 72/1/51 61/1/51
f 38/1/52 37/1/52 61/1/52 62/1/52
f 45/1/53 44/1/53 68/1/53 69/1/53
f 42/1/54 41/1/54 65/1/54 66/1/54
f 39/1/55 38/1/55 62/1/55 63/1/55
f 87/1/56 88/1/56 74/1/56 75/1/56
f 88/1/57 89/1/57 73/1/57 74/1/57
f 47/1/58 71/1/58 78/1/58 77/1/58
f 11/1/59 47/1/59 77/1/59 76/1/59
f 77/1/60 78/1/60 81/1/60 80/1/60
f 76/1/61 77/1/61 80/1/61 79/1/61
f 80/1/62 81/1/62 84/1/62 83/1/62
f 79/1/63 80/1/63 83/1/63 82/1/63
f 75/1/64 74/1/64 85/1/64 86/1/64
f 74/1/65 73/1/65 85/1/65
f 82/1/66 85/1/66 73/1/66 79/1/66
f 23/1/67 11/1/67 76/1/67 79/1/67 73/1/67 89/1/67
f 35/1/68 23/1/68 89/1/68 88/1/68
f 59/1/69 35/1/69 88/1/69 87/1/69
