# Blender 5.0.1
# www.blender.org
mtllib pente1-cheese-form.mtl
o PENTE_PLATE
v -0.393419 -17.129652 -52.366631
v 0.498368 -10.582697 -41.611900
v 3.305690 -4.288198 -28.586632
v 6.403752 0.110844 -17.725616
v 6.378309 3.083225 -8.755821
v 2.274801 4.833490 -0.704403
v 3.702533 6.152142 7.529856
v 1.156541 7.591396 16.932833
v -1.703260 10.012978 26.099854
v -2.557956 13.553402 30.981524
v -0.782695 18.483734 37.496685
v -0.735550 -23.776358 -60.586357
v 10.673658 -15.439844 -49.387352
v 10.115833 -9.102549 -38.605347
v 10.433393 -4.109468 -28.956902
v 12.184883 -0.193516 -20.033112
v 13.450045 3.018572 -13.497520
v 19.059126 -11.125643 -21.473690
v 10.765514 7.186611 9.884960
v 10.374168 9.570143 13.726646
v 11.637529 12.245687 23.066696
v 16.267794 16.259220 27.660885
v 17.808506 21.406361 33.840790
v 10.829992 -22.642817 -61.977089
v 16.896786 -14.374140 -51.541985
v 17.378988 -7.718658 -39.249329
v 13.647560 -2.956697 -29.058296
v 19.059128 0.712803 -21.473690
v 17.756374 3.756184 -11.389297
v 20.483484 5.289846 -2.439259
v 15.867882 7.469155 5.903231
v 16.103024 10.006807 13.825632
v 18.698137 12.518545 22.859066
v 22.763092 15.880487 27.944094
v 22.347672 21.627146 33.408951
v 19.053585 -21.903490 -62.949081
v -9.337498 -15.687078 -51.129974
v -9.036081 -9.389582 -40.921539
v -9.422558 -4.284674 -31.933556
v -9.643300 -0.033573 -23.209816
v -11.141174 3.755762 -13.705490
v -11.953503 5.825960 -5.401211
v -11.441706 7.766805 3.484451
v -10.357552 9.916096 12.910419
v -9.180397 12.707986 22.372978
v -10.566784 16.401812 27.486820
v -12.619049 21.726423 33.518246
v -11.444118 -23.053919 -61.478691
v 25.908377 -14.530542 -55.929344
v 25.908373 -8.182175 -38.079910
v 15.336252 -14.795145 -29.058296
v 25.908373 1.403509 -23.862873
v 25.908373 4.111486 -11.338585
v 25.908375 5.040428 -0.872372
v 25.908373 6.300381 9.154232
v 25.908375 8.390921 17.432838
v 26.016092 11.597269 24.243275
v 25.678434 15.706655 28.100300
v 25.366486 22.199226 32.740536
v 25.908373 -21.358072 -63.750710
v -21.788464 -14.181509 -55.874977
v -21.788465 -7.707003 -44.663643
v -21.788467 -2.290134 -32.915932
v -21.788467 1.370232 -21.524338
v -21.788469 3.709826 -9.112389
v -21.788467 4.986916 0.112137
v -21.788467 6.869471 8.240005
v -21.788467 9.170131 16.144634
v -21.788469 12.115640 23.618010
v -21.788467 16.010563 27.843475
v -21.788467 21.514336 33.650711
v -21.788465 -20.898127 -64.278526
v 18.067701 29.633921 44.287762
v 19.827871 32.105053 43.736675
v 23.818480 32.568024 42.885159
v -0.073914 22.777557 43.107796
v -13.240267 26.002396 39.137016
v -21.421906 26.318232 38.595047
v -1.247147 29.887627 49.833141
v -9.602942 32.061195 46.405647
v -21.421906 32.190742 44.750893
v -1.247147 30.777802 51.060959
v -9.602944 31.623638 51.359509
v -21.421906 32.663261 50.488804
v 17.504322 33.768303 48.928139
v 22.349897 35.305099 48.321156
v 24.860746 28.551790 37.901894
v 21.043478 28.027740 38.636330
v 17.972284 26.706854 40.120975
v -1.247147 31.941267 53.619522
v -9.602944 32.007778 53.918076
v -21.421906 32.776611 53.047371
v 17.504320 34.586620 51.486702
v 22.349895 35.815025 50.879723
v -1.247147 33.128864 66.427170
v -9.602943 33.128860 66.427170
v -21.421904 33.128860 66.427170
v 17.504318 33.128860 66.427170
v 22.349897 33.128860 66.427170
v -0.735550 -33.814003 -63.313194
v 10.829992 -33.814003 -63.313202
v 19.053585 -33.814011 -63.313202
v -11.444117 -33.814011 -63.313194
v 25.908373 -33.814011 -63.313194
v -21.788467 -33.814011 -63.313194
v 25.908375 -26.683886 -56.194908
v 25.908373 -20.356081 -39.064781
v 17.378990 -19.557104 -39.249336
v 25.908371 -10.605558 -24.056870
v 25.908373 -8.068211 -11.359772
v 25.908373 -7.139271 -0.872372
v 25.908371 -5.879316 9.154230
v 25.908375 -3.776890 17.432838
v 26.016092 -0.478477 24.243275
v 25.678432 3.718386 28.100302
v 25.366486 10.176904 32.740536
v -21.788465 -26.343187 -56.088730
v -21.788467 -19.886698 -45.580536
v -21.788467 -14.469828 -33.562981
v -21.788469 -10.809465 -21.851685
v -21.788469 -8.469875 -9.116226
v -21.788469 -7.192783 0.112137
v -21.788469 -5.310226 8.240002
v -21.788465 -3.008219 16.144634
v -21.788467 0.017881 23.618008
v -21.788467 3.927721 27.843473
v -21.788465 9.435058 33.650707
v 24.680029 21.798422 42.885159
v -21.421906 14.272345 38.595043
v -21.421906 21.208519 44.750893
v -21.421907 20.483564 50.488800
v 22.349895 23.127785 48.321152
v 24.860748 16.492014 37.901894
v -21.421907 20.596914 53.047371
v 22.349894 23.635326 50.879723
v -1.247147 20.949165 66.427170
v -9.602943 20.949165 66.427170
v -21.421904 20.949169 66.427170
v 17.504318 20.949165 66.427170
v 22.349897 20.949165 66.427170
v 2.274801 -7.570608 -0.704403
v 6.378309 -9.320875 -8.755821
v 3.702533 -6.251959 7.529856
v 13.450045 -9.385530 -13.497524
v 10.765514 -5.217489 9.884958
v 17.756376 -8.647917 -11.389297
v 20.483484 -7.114250 -2.439262
v 15.867882 -4.934946 5.903231
v -1.703260 -0.636400 26.099854
v -2.557956 2.904024 30.981522
v -9.180397 2.058609 22.372976
v -10.566784 5.752436 27.486820
vn -0.0682 0.9256 -0.3723
vn -0.2251 0.7909 -0.5690
vn -0.1887 0.9316 -0.3107
vn -0.1675 0.9202 -0.3537
vn -0.0649 0.8310 -0.5525
vn 0.0171 0.8579 -0.5135
vn -0.2498 0.9278 -0.2771
vn -0.6152 -0.0000 -0.7884
vn -0.0190 0.8961 -0.4435
vn -0.2317 0.8036 -0.5483
vn 0.8910 -0.0000 0.4541
vn -0.1158 0.9295 -0.3501
vn -0.2166 0.8225 -0.5259
vn -0.2518 0.8429 -0.4755
vn -0.0557 0.9639 -0.2604
vn 0.5569 -0.0000 0.8306
vn -0.2396 0.8543 -0.4613
vn 0.0096 0.7912 -0.6115
vn -0.8750 -0.0000 -0.4841
vn -0.2361 0.9178 -0.3193
vn 0.0012 0.7302 -0.6832
vn -0.1964 0.9036 -0.3806
vn 0.1102 0.9747 -0.1945
vn 0.1029 0.8786 -0.4663
vn -0.9566 -0.0000 0.2915
vn 0.1458 0.9687 -0.2009
vn 0.1233 0.9010 -0.4160
vn 0.4292 0.7040 -0.5659
vn 0.1940 0.9663 -0.1691
vn 0.1181 0.9356 -0.3327
vn 0.0765 0.7910 -0.6070
vn 0.0665 0.8491 -0.5240
vn 0.3341 0.9151 -0.2259
vn 0.0074 0.9919 -0.1268
vn -0.3418 0.0076 -0.9397
vn 0.1782 0.7173 -0.6736
vn 0.1363 0.9794 -0.1491
vn 0.8420 0.0601 -0.5361
vn -0.1087 0.6291 -0.7697
vn 0.2249 0.9360 -0.2707
vn -0.1062 0.9622 -0.2509
vn -0.2150 0.7708 -0.5997
vn -0.0401 0.9177 -0.3953
vn 0.2398 0.8994 -0.3655
vn -0.0744 0.7685 -0.6355
vn -0.1893 0.9592 -0.2099
vn 0.1178 0.9246 -0.3623
vn -0.0380 0.7341 -0.6780
vn -0.1590 0.9586 -0.2362
vn -0.0171 0.9626 -0.2704
vn 0.3151 0.7415 -0.5923
vn 0.2713 0.8250 -0.4957
vn -0.1107 0.9436 -0.3120
vn -0.1367 0.9718 -0.1919
vn 0.2105 0.8734 -0.4392
vn -0.2230 0.7353 -0.6401
vn -0.6545 0.5630 -0.5046
vn 0.0199 0.7584 -0.6515
vn 0.3704 0.7370 -0.5653
vn 0.0905 0.7321 -0.6752
vn 0.3887 0.6358 -0.6668
vn 0.0497 0.9988 -0.0033
vn 0.1903 0.9791 -0.0717
vn -0.2671 0.8530 -0.4485
vn -0.7615 0.4353 -0.4803
vn -0.1840 0.7378 -0.6494
vn -0.2373 0.7353 -0.6348
vn -0.3067 0.6520 -0.6934
vn -0.2520 0.5894 -0.7675
vn 0.0830 0.9919 -0.0964
vn 0.0419 0.9563 -0.2892
vn -0.2941 0.9251 -0.2401
vn -0.1783 0.9176 -0.3554
vn -0.1164 0.9842 0.1338
vn 0.0345 0.9978 -0.0568
vn -0.0698 0.9975 0.0097
vn 0.0023 0.9959 -0.0908
vn -0.0621 0.0733 -0.9954
vn 0.1377 0.0363 -0.9898
vn -0.0583 -0.0030 -0.9983
vn 0.0479 0.2140 -0.9757
vn -0.0681 0.1877 -0.9799
vn -0.0000 -0.0000 1.0000
vn 0.9955 0.0376 0.0870
vn 0.9962 -0.0000 0.0872
vn 0.9977 -0.0000 0.0671
vn -1.0000 -0.0000 -0.0000
vn 1.0000 -0.0000 -0.0000
vn -0.9973 -0.0000 0.0739
vn 0.9475 0.0356 0.3178
vn 0.9678 0.0690 0.2419
vn -0.0821 -0.0408 0.9958
vn 0.9952 -0.0000 0.0975
vn 0.9999 -0.0000 -0.0158
vn 0.9853 -0.0000 -0.1708
vn 0.3163 -0.0000 -0.9487
vn -0.4397 -0.0000 0.8981
vn -0.4461 -0.0000 0.8950
vn 0.3999 -0.0000 -0.9165
vn 0.9652 -0.0000 0.2617
vn -0.9850 -0.0000 -0.1725
vt 0.000000 0.000000
s 0
f 3/1/1 4/1/1 16/1/1 15/1/1
f 10/1/2 11/1/2 23/1/2 22/1/2
f 7/1/3 8/1/3 20/1/3 19/1/3
f 4/1/4 5/1/4 17/1/4 16/1/4
f 12/1/5 1/1/5 13/1/5 24/1/5
f 1/1/6 2/1/6 14/1/6 13/1/6
f 8/1/7 9/1/7 21/1/7 20/1/7
f 19/1/8 31/1/8 148/1/8 145/1/8
f 2/1/9 3/1/9 15/1/9 14/1/9
f 9/1/10 10/1/10 22/1/10 21/1/10
f 5/1/11 6/1/11 141/1/11 142/1/11
f 16/1/12 17/1/12 29/1/12 28/1/12
f 24/1/13 13/1/13 25/1/13 36/1/13
f 13/1/14 14/1/14 26/1/14 25/1/14
f 20/1/15 21/1/15 33/1/15 32/1/15
f 17/1/16 5/1/16 142/1/16 144/1/16
f 14/1/17 15/1/17 27/1/17 26/1/17
f 21/1/18 22/1/18 34/1/18 33/1/18
f 31/1/19 30/1/19 147/1/19 148/1/19
f 15/1/20 16/1/20 28/1/20 27/1/20
f 22/1/21 23/1/21 35/1/21 34/1/21
f 19/1/22 20/1/22 32/1/22 31/1/22
f 6/1/23 5/1/23 41/1/23 42/1/23
f 3/1/24 2/1/24 38/1/24 39/1/24
f 30/1/25 29/1/25 146/1/25 147/1/25
f 7/1/26 6/1/26 42/1/26 43/1/26
f 4/1/27 3/1/27 39/1/27 40/1/27
f 11/1/28 10/1/28 46/1/28 47/1/28
f 8/1/29 7/1/29 43/1/29 44/1/29
f 5/1/30 4/1/30 40/1/30 41/1/30
f 1/1/31 12/1/31 48/1/31 37/1/31
f 2/1/32 1/1/32 37/1/32 38/1/32
f 9/1/33 8/1/33 44/1/33 45/1/33
f 29/1/34 30/1/34 54/1/34 53/1/34
f 28/1/35 52/1/35 109/1/35 18/1/35
f 33/1/36 34/1/36 58/1/36 57/1/36
f 30/1/37 31/1/37 55/1/37 54/1/37
f 27/1/38 28/1/38 18/1/38 51/1/38
f 34/1/39 35/1/39 59/1/39 58/1/39
f 31/1/40 32/1/40 56/1/40 55/1/40
f 28/1/41 29/1/41 53/1/41 52/1/41
f 36/1/42 25/1/42 49/1/42 60/1/42
f 25/1/43 26/1/43 50/1/43 49/1/43
f 32/1/44 33/1/44 57/1/44 56/1/44
f 46/1/45 45/1/45 69/1/45 70/1/45
f 43/1/46 42/1/46 66/1/46 67/1/46
f 40/1/47 39/1/47 63/1/47 64/1/47
f 47/1/48 46/1/48 70/1/48 71/1/48
f 44/1/49 43/1/49 67/1/49 68/1/49
f 41/1/50 40/1/50 64/1/50 65/1/50
f 37/1/51 48/1/51 72/1/51 61/1/51
f 38/1/52 37/1/52 61/1/52 62/1/52
f 45/1/53 44/1/53 68/1/53 69/1/53
f 42/1/54 41/1/54 65/1/54 66/1/54
f 39/1/55 38/1/55 62/1/55 63/1/55
f 87/1/56 88/1/56 74/1/56 75/1/56
f 88/1/57 89/1/57 73/1/57 74/1/57
f 47/1/58 71/1/58 78/1/58 77/1/58
f 11/1/59 47/1/59 77/1/59 76/1/59
f 77/1/60 78/1/60 81/1/60 80/1/60
f 76/1/61 77/1/61 80/1/61 79/1/61
f 80/1/62 81/1/62 84/1/62 83/1/62
f 79/1/63 80/1/63 83/1/63 82/1/63
f 75/1/64 74/1/64 85/1/64 86/1/64
f 74/1/65 73/1/65 85/1/65
f 82/1/66 85/1/66 73/1/66 79/1/66
f 23/1/67 11/1/67 76/1/67 79/1/67 73/1/67 89/1/67
f 35/1/68 23/1/68 89/1/68 88/1/68
f 59/1/69 35/1/69 88/1/69 87/1/69
f 83/1/70 84/1/70 92/1/70 91/1/70
f 82/1/71 83/1/71 91/1/71 90/1/71
f 86/1/72 85/1/72 93/1/72 94/1/72
f 85/1/73 82/1/73 90/1/73 93/1/73
f 94/1/74 93/1/74 98/1/74 99/1/74
f 91/1/75 92/1/75 97/1/75 96/1/75
f 93/1/76 90/1/76 95/1/76 98/1/76
f 90/1/77 91/1/77 96/1/77 95/1/77
f 24/1/78 36/1/78 102/1/78 101/1/78
f 72/1/79 48/1/79 103/1/79 105/1/79
f 36/1/80 60/1/80 104/1/80 102/1/80
f 48/1/81 12/1/81 100/1/81 103/1/81
f 12/1/82 24/1/82 101/1/82 100/1/82
f 98/1/83 95/1/83 136/1/83 139/1/83
f 87/1/84 75/1/84 128/1/84 133/1/84
f 57/1/85 58/1/85 115/1/85 114/1/85
f 99/1/83 98/1/83 139/1/83 140/1/83
f 58/1/86 59/1/86 116/1/86 115/1/86
f 84/1/87 81/1/87 130/1/87 131/1/87
f 62/1/87 61/1/87 117/1/87 118/1/87
f 60/1/88 49/1/88 106/1/88 104/1/88
f 94/1/88 99/1/88 140/1/88 135/1/88
f 63/1/87 62/1/87 118/1/87 119/1/87
f 97/1/87 92/1/87 134/1/87 138/1/87
f 64/1/87 63/1/87 119/1/87 120/1/87
f 65/1/87 64/1/87 120/1/87 121/1/87
f 78/1/89 71/1/89 127/1/89 129/1/89
f 75/1/90 86/1/90 132/1/90 128/1/90
f 49/1/88 50/1/88 107/1/88 106/1/88
f 66/1/87 65/1/87 121/1/87 122/1/87
f 92/1/87 84/1/87 131/1/87 134/1/87
f 26/1/91 27/1/91 51/1/91 108/1/91
f 67/1/87 66/1/87 122/1/87 123/1/87
f 50/1/92 26/1/92 108/1/92 107/1/92
f 68/1/87 67/1/87 123/1/87 124/1/87
f 52/1/88 53/1/88 110/1/88 109/1/88
f 69/1/87 68/1/87 124/1/87 125/1/87
f 53/1/88 54/1/88 111/1/88 110/1/88
f 70/1/87 69/1/87 125/1/87 126/1/87
f 81/1/87 78/1/87 129/1/87 130/1/87
f 86/1/88 94/1/88 135/1/88 132/1/88
f 59/1/93 87/1/93 133/1/93 116/1/93
f 54/1/88 55/1/88 112/1/88 111/1/88
f 71/1/87 70/1/87 126/1/87 127/1/87
f 95/1/83 96/1/83 137/1/83 136/1/83
f 55/1/88 56/1/88 113/1/88 112/1/88
f 61/1/87 72/1/87 105/1/87 117/1/87
f 96/1/83 97/1/83 138/1/83 137/1/83
f 56/1/94 57/1/94 114/1/94 113/1/94
f 6/1/95 7/1/95 143/1/95 141/1/95
f 7/1/96 19/1/96 145/1/96 143/1/96
f 29/1/97 17/1/97 144/1/97 146/1/97
f 9/1/98 45/1/98 151/1/98 149/1/98
f 46/1/99 10/1/99 150/1/99 152/1/99
f 45/1/100 46/1/100 152/1/100 151/1/100
f 10/1/101 9/1/101 149/1/101 150/1/101
