# Blender 5.0.1
# www.blender.org
mtllib pente2-norm.mtl
o PENTE_MOINS
v -10.607820 21.270218 37.925568
v -10.468119 18.311169 33.403580
v -10.001583 15.647749 29.531731
v -9.438669 12.817965 26.533619
v -9.126090 9.655815 22.649456
v -9.221922 7.692377 17.757420
v -9.866313 6.032898 11.324162
v -10.912306 3.798721 4.516785
v -11.398201 -0.202768 -2.829214
v -10.210767 -6.186712 -11.680183
v -9.240117 -15.265184 -23.442095
v -10.485626 24.697144 44.423874
v -14.215790 22.099869 37.432304
v -13.278766 19.158131 32.767929
v -12.146651 16.369953 29.064129
v -10.917174 13.365730 26.325939
v -10.462426 9.916637 23.037590
v -10.626804 7.934635 18.196983
v -11.071082 6.651102 10.923164
v -12.796932 4.432722 4.182877
v -14.810561 0.624966 -3.439390
v -14.071966 -5.453576 -12.423697
v -11.752569 -14.674008 -24.192888
v -14.481483 25.534267 43.966530
v -15.759519 23.135571 36.878136
v -14.742386 20.306171 31.975456
v -13.531040 17.572968 28.157146
v -12.289531 14.830545 24.843548
v -11.873179 11.455301 21.391171
v -11.993482 9.488508 16.518929
v -12.472679 8.062639 9.556774
v -14.340658 5.468420 3.637409
v -16.353487 1.679613 -4.026514
v -16.784342 -4.802752 -16.354925
v -14.450014 -11.978145 -27.614182
v -16.025213 26.569965 43.402534
v -7.194287 21.616421 37.720177
v -7.236057 18.718273 33.103928
v -6.914398 16.128777 29.109734
v -6.484262 13.830606 24.985607
v -6.117867 11.256685 19.823017
v -6.196281 9.224829 15.077877
v -7.088328 6.909187 10.084877
v -8.065425 4.186771 4.312412
v -8.431020 0.170628 -3.117279
v -7.308933 -5.636456 -12.497826
v -6.616529 -13.911436 -26.118742
v -6.957760 25.019531 44.248573
v -18.855797 23.799725 36.523201
v -18.855797 21.132019 31.436676
v -18.855797 18.791733 26.992664
v -18.855795 16.574627 22.782978
v -18.855793 13.946941 17.793705
v -18.855793 11.688776 13.506058
v -18.855793 9.184263 8.750656
v -18.855789 6.269173 3.215679
v -18.855789 2.286587 -4.346188
v -18.855785 -3.074193 -14.524874
v -17.417648 -9.496090 -29.906982
v -18.855797 27.208542 43.055199
v -24.081745 -8.932665 -30.203722
v -24.248875 27.727745 42.772774
v -3.627607 21.290115 37.867142
v -3.653526 18.571770 32.874557
v -3.758425 16.121651 28.662022
v -3.846298 13.864767 24.536228
v -3.844743 11.318237 19.368500
v -3.752637 9.160679 14.863323
v -3.647027 6.674175 10.072639
v -3.627600 3.759562 4.537411
v -3.627598 -0.223024 -3.024454
v -3.627599 -5.583880 -13.202967
v -3.627985 -13.329635 -27.872528
v -3.627608 24.698933 44.424179
v 2.078624 -12.115229 -28.527565
v 2.069405 25.686554 44.256660
v -12.311990 -31.800722 -55.240112
v -13.504725 -27.685074 -59.953766
v -18.127720 -24.746189 -61.582733
v -24.361038 -24.958387 -60.711819
v -9.368059 -22.472345 -36.078377
v -7.024880 -21.616409 -38.267941
v -2.899947 -20.209858 -40.616055
v 2.100482 -18.996815 -41.247234
v -9.882007 -32.685799 -54.239441
v -7.831425 -32.281433 -55.432674
v -2.855731 -30.503757 -57.798592
v 2.271017 -28.668934 -59.657619
v -10.123827 -33.423302 -60.669971
v -8.044329 -33.372456 -60.677643
v -3.223493 -33.096390 -60.681946
v 2.305144 -33.101700 -60.714325
v -13.330085 -33.733368 -60.677902
v -17.742031 -33.551559 -60.636955
v -24.643265 -33.383781 -60.582863
v 13.027446 -10.917781 -30.711962
v 13.047141 30.871189 41.038925
v 13.099801 -17.770302 -43.565643
v 13.478822 -26.378593 -63.798664
v 14.034747 -32.866333 -60.762043
v 19.478405 -9.463611 -32.246815
v 19.216587 27.946819 43.979507
v 20.143612 -14.407926 -45.867546
v 21.730247 -24.398064 -62.493572
v 22.233345 -33.252190 -60.842346
v -10.495301 25.792103 48.647667
v -14.494316 26.256790 48.157005
v -16.041832 26.845821 47.552910
v -6.968472 25.992096 48.461433
v -18.874821 27.201202 47.180038
v -24.269955 27.477314 46.875587
v -3.637048 25.821594 48.650459
v 2.056703 26.424381 48.449661
v 13.016032 29.438076 45.032623
v 19.196590 27.824211 48.098969
v -10.500916 26.946945 52.100693
v -14.503565 26.983013 51.577835
v -16.055439 27.058002 50.934380
v -6.975282 27.006069 51.903923
v -18.891190 27.087460 50.536163
v -24.288696 27.083809 50.209709
v -3.642392 27.008327 52.105858
v 2.047604 27.168228 51.872139
v 12.985755 27.683479 48.256325
v 19.179096 27.577812 51.447708
v -10.565740 28.467957 69.056427
v -14.571533 28.428841 69.077034
v -16.127176 28.413647 69.085037
v -7.041139 28.502377 69.038300
v -18.965321 28.385933 69.099632
v -24.364880 28.333202 69.127403
v -3.706983 28.534931 69.021149
v 1.981160 28.590485 68.991898
v 12.899434 28.697109 68.935738
v 19.108990 28.757748 68.903801
v -10.284444 -41.301723 -61.260220
v -8.169413 -41.250786 -61.267887
v -3.266204 -40.974598 -61.272190
v 2.356900 -40.979919 -61.304573
v -13.545486 -41.611969 -61.268147
v -18.032818 -41.430496 -61.227200
v -25.051977 -41.263439 -61.173111
v 14.286927 -40.745087 -61.352291
v 22.625614 -41.131737 -61.432594
v -24.218468 -23.581554 -31.448513
v -24.372770 13.113335 41.572609
v 19.386295 -24.147417 -33.491608
v 19.092690 13.332411 42.786942
v 20.321369 -29.683805 -47.112339
v -24.393852 12.862907 45.703400
v 19.072693 13.209805 46.939087
v -24.412594 12.469398 49.064156
v 19.055199 12.963402 50.321236
v -10.689636 13.853546 68.600700
v -14.695431 13.814430 68.621307
v -16.251074 13.799242 68.629311
v -7.165036 13.887968 68.582573
v -19.089218 13.771523 68.643906
v -24.488773 13.718794 68.671677
v -3.830879 13.920530 68.565430
v 1.857265 13.976078 68.536171
v 12.775537 14.082703 68.480026
v 18.985092 14.143341 68.448082
vn 0.3612 0.7078 -0.6070
vn 0.2925 0.7743 -0.5612
vn 0.4227 0.8317 -0.3599
vn 0.1686 0.7337 -0.6582
vn 0.2445 0.8591 -0.4496
vn 0.3000 0.8182 -0.4904
vn 0.3118 0.8200 -0.4799
vn 0.0561 0.9248 -0.3764
vn 0.3605 0.7915 -0.4935
vn 0.2706 0.8107 -0.5191
vn 0.3023 0.9268 -0.2230
vn 0.8387 0.4332 -0.3302
vn 0.6060 0.7139 -0.3508
vn 0.6443 0.7059 -0.2942
vn 0.6061 0.6370 -0.4762
vn 0.8336 0.5027 -0.2288
vn 0.7030 0.6598 -0.2653
vn 0.6592 0.6520 -0.3747
vn 0.7988 0.5793 -0.1621
vn 0.7744 0.5855 -0.2398
vn 0.7490 0.6018 -0.2771
vn 0.7255 0.5492 -0.4147
vn -0.6342 0.7182 -0.2863
vn -0.1777 0.8101 -0.5588
vn -0.2299 0.8037 -0.5489
vn -0.4988 0.8372 -0.2242
vn -0.3683 0.7294 -0.5765
vn -0.5465 0.6742 -0.4968
vn -0.2838 0.9068 -0.3117
vn -0.6156 0.6438 -0.4544
vn -0.1101 0.8815 -0.4592
vn -0.1352 0.8335 -0.5357
vn -0.1536 0.8722 -0.4644
vn 0.4540 0.8068 -0.3781
vn 0.2674 0.8381 -0.4755
vn 0.2834 0.8464 -0.4508
vn 0.3150 0.8959 -0.3134
vn 0.3325 0.8117 -0.4802
vn 0.6306 0.7238 -0.2801
vn 0.2041 0.8688 -0.4512
vn 0.4426 0.7410 -0.5051
vn 0.2422 0.8614 -0.4465
vn 0.2339 0.8617 -0.4504
vn 0.2211 0.8565 -0.4664
vn 0.2129 0.8743 -0.4362
vn -0.0009 0.8684 -0.4959
vn 0.0285 0.8964 -0.4423
vn -0.0791 0.8713 -0.4844
vn -0.2570 0.8382 -0.4810
vn 0.0868 0.8886 -0.4503
vn -0.0992 0.8901 -0.4448
vn 0.1042 0.8814 -0.4607
vn 0.0512 0.8620 -0.5042
vn 0.0941 0.8774 -0.4704
vn -0.0579 0.9094 -0.4119
vn -0.0332 0.8513 -0.5236
vn -0.2042 0.8676 -0.4534
vn 0.0043 0.8933 -0.4494
vn 0.6553 0.6810 -0.3269
vn 0.9286 0.3318 -0.1662
vn -0.2485 0.8491 -0.4662
vn -0.4716 0.7582 -0.4503
vn -0.6591 0.6507 -0.3772
vn -0.3576 0.8136 -0.4585
vn -0.4924 0.7478 -0.4454
vn -0.5319 0.7376 -0.4160
vn -0.2328 0.4841 -0.8435
vn -0.2770 0.8825 -0.3801
vn -0.1506 0.9776 -0.1472
vn -0.0699 -0.0625 -0.9956
vn 0.1703 -0.0083 -0.9854
vn 0.9780 0.0524 -0.2017
vn 0.1396 0.9628 -0.2314
vn 0.3976 0.7977 -0.4535
vn -0.1569 -0.1844 -0.9703
vn -0.3501 0.8205 -0.4518
vn -0.1909 0.8645 -0.4650
vn -0.2591 0.8717 -0.4160
vn -0.3215 0.8384 -0.4402
vn 0.1534 0.8713 -0.4661
vn 0.0986 -0.2846 -0.9536
vn -0.4050 0.8309 -0.3815
vn -0.1419 0.9665 -0.2139
vn 0.0718 0.9969 0.0316
vn 0.1811 0.9614 -0.2072
vn 0.2592 0.9482 0.1835
vn -0.0838 0.9678 -0.2374
vn 0.1766 0.9838 -0.0312
vn 0.0844 0.9671 -0.2399
vn 0.4927 0.8642 -0.1017
vn -0.3282 0.9414 0.0782
vn -0.0513 0.9526 -0.2997
vn -0.0746 0.9601 -0.2696
vn 0.0697 0.9975 -0.0143
vn 0.0934 0.9604 -0.2626
vn -0.1106 0.9827 0.1488
vn 0.0207 0.9969 0.0757
vn 0.2579 0.9572 -0.1312
vn -0.0143 0.9566 0.2911
vn 0.0418 0.9519 -0.3036
vn 0.0050 0.9963 -0.0858
vn -0.0392 0.9972 -0.0644
vn -0.0033 0.9977 -0.0678
vn 0.0352 0.9963 -0.0782
vn 0.0182 0.9982 -0.0573
vn -0.0028 0.9961 -0.0884
vn -0.0159 0.9960 -0.0882
vn -0.0209 0.9960 -0.0864
vn 0.0052 0.9974 -0.0721
vn -0.0051 0.0748 -0.9972
vn -0.0062 0.0744 -0.9972
vn -0.0059 0.0750 -0.9972
vn -0.0061 0.0749 -0.9972
vn -0.0057 0.0747 -0.9972
vn -0.0047 0.0748 -0.9972
vn -0.0055 0.0748 -0.9972
vn -0.0055 0.0746 -0.9972
vn 0.9999 -0.0080 0.0076
vn 0.0054 -0.0312 0.9995
vn -1.0000 0.0088 -0.0046
vn -1.0000 0.0087 -0.0045
vn 0.9982 -0.0021 0.0594
vn 1.0000 -0.0088 0.0046
vn -0.9999 0.0095 -0.0070
vn 0.9944 0.0298 0.1013
vn -0.9998 0.0180 0.0040
vn 1.0000 -0.0087 0.0045
vn -0.9986 0.0520 -0.0029
vn 0.9910 0.0398 0.1277
vt 0.000000 0.000000
s 0
f 3/1/1 4/1/1 16/1/1 15/1/1
f 10/1/2 11/1/2 23/1/2 22/1/2
f 7/1/3 8/1/3 20/1/3 19/1/3
f 4/1/4 5/1/4 17/1/4 16/1/4
f 12/1/5 1/1/5 13/1/5 24/1/5
f 1/1/6 2/1/6 14/1/6 13/1/6
f 8/1/7 9/1/7 21/1/7 20/1/7
f 5/1/8 6/1/8 18/1/8 17/1/8
f 2/1/9 3/1/9 15/1/9 14/1/9
f 9/1/10 10/1/10 22/1/10 21/1/10
f 6/1/11 7/1/11 19/1/11 18/1/11
f 16/1/12 17/1/12 29/1/12 28/1/12
f 24/1/13 13/1/13 25/1/13 36/1/13
f 13/1/14 14/1/14 26/1/14 25/1/14
f 20/1/15 21/1/15 33/1/15 32/1/15
f 17/1/16 18/1/16 30/1/16 29/1/16
f 14/1/17 15/1/17 27/1/17 26/1/17
f 21/1/18 22/1/18 34/1/18 33/1/18
f 18/1/19 19/1/19 31/1/19 30/1/19
f 15/1/20 16/1/20 28/1/20 27/1/20
f 22/1/21 23/1/21 35/1/21 34/1/21
f 19/1/22 20/1/22 32/1/22 31/1/22
f 6/1/23 5/1/23 41/1/23 42/1/23
f 3/1/24 2/1/24 38/1/24 39/1/24
f 10/1/25 9/1/25 45/1/25 46/1/25
f 7/1/26 6/1/26 42/1/26 43/1/26
f 4/1/27 3/1/27 39/1/27 40/1/27
f 11/1/28 10/1/28 46/1/28 47/1/28
f 8/1/29 7/1/29 43/1/29 44/1/29
f 5/1/30 4/1/30 40/1/30 41/1/30
f 1/1/31 12/1/31 48/1/31 37/1/31
f 2/1/32 1/1/32 37/1/32 38/1/32
f 9/1/33 8/1/33 44/1/33 45/1/33
f 29/1/34 30/1/34 54/1/34 53/1/34
f 26/1/35 27/1/35 51/1/35 50/1/35
f 33/1/36 34/1/36 58/1/36 57/1/36
f 30/1/37 31/1/37 55/1/37 54/1/37
f 27/1/38 28/1/38 52/1/38 51/1/38
f 34/1/39 35/1/39 59/1/39 58/1/39
f 31/1/40 32/1/40 56/1/40 55/1/40
f 28/1/41 29/1/41 53/1/41 52/1/41
f 36/1/42 25/1/42 49/1/42 60/1/42
f 25/1/43 26/1/43 50/1/43 49/1/43
f 32/1/44 33/1/44 57/1/44 56/1/44
f 49/1/45 50/1/45 51/1/45 52/1/45 53/1/45 54/1/45 55/1/45 56/1/45 57/1/45 58/1/45 59/1/45 61/1/45 62/1/45 60/1/45
f 46/1/46 45/1/46 71/1/46 72/1/46
f 43/1/47 42/1/47 68/1/47 69/1/47
f 40/1/48 39/1/48 65/1/48 66/1/48
f 47/1/49 46/1/49 72/1/49 73/1/49
f 44/1/50 43/1/50 69/1/50 70/1/50
f 41/1/51 40/1/51 66/1/51 67/1/51
f 37/1/52 48/1/52 74/1/52 63/1/52
f 38/1/53 37/1/53 63/1/53 64/1/53
f 45/1/54 44/1/54 70/1/54 71/1/54
f 42/1/55 41/1/55 67/1/55 68/1/55
f 39/1/56 38/1/56 64/1/56 65/1/56
f 63/1/57 74/1/57 76/1/57 75/1/57 73/1/57 72/1/57 71/1/57 70/1/57 69/1/57 68/1/57 67/1/57 66/1/57 65/1/57 64/1/57
f 61/1/58 59/1/58 79/1/58 80/1/58
f 59/1/59 35/1/59 78/1/59 79/1/59
f 35/1/60 23/1/60 77/1/60 78/1/60
f 73/1/61 75/1/61 84/1/61 83/1/61
f 47/1/62 73/1/62 83/1/62 82/1/62
f 11/1/63 47/1/63 82/1/63 81/1/63
f 83/1/64 84/1/64 88/1/64 87/1/64
f 82/1/65 83/1/65 87/1/65 86/1/65
f 81/1/66 82/1/66 86/1/66 85/1/66
f 87/1/67 88/1/67 92/1/67 91/1/67
f 86/1/68 87/1/68 91/1/68 90/1/68
f 85/1/69 86/1/69 90/1/69 89/1/69
f 80/1/70 79/1/70 94/1/70 95/1/70
f 79/1/71 78/1/71 93/1/71 94/1/71
f 78/1/72 77/1/72 93/1/72
f 89/1/73 93/1/73 77/1/73 85/1/73
f 23/1/74 11/1/74 81/1/74 85/1/74 77/1/74
f 92/1/75 88/1/75 99/1/75 100/1/75
f 75/1/76 76/1/76 97/1/76 96/1/76
f 84/1/77 75/1/77 96/1/77 98/1/77
f 88/1/78 84/1/78 98/1/78 99/1/78
f 99/1/79 98/1/79 103/1/79 104/1/79
f 96/1/80 97/1/80 102/1/80 101/1/80
f 100/1/81 99/1/81 104/1/81 105/1/81
f 98/1/82 96/1/82 101/1/82 103/1/82
f 76/1/83 74/1/83 112/1/83 113/1/83
f 60/1/84 62/1/84 111/1/84 110/1/84
f 12/1/85 24/1/85 107/1/85 106/1/85
f 102/1/86 97/1/86 114/1/86 115/1/86
f 48/1/87 12/1/87 106/1/87 109/1/87
f 36/1/88 60/1/88 110/1/88 108/1/88
f 74/1/89 48/1/89 109/1/89 112/1/89
f 24/1/90 36/1/90 108/1/90 107/1/90
f 97/1/91 76/1/91 113/1/91 114/1/91
f 109/1/92 106/1/92 116/1/92 119/1/92
f 113/1/93 112/1/93 122/1/93 123/1/93
f 108/1/94 110/1/94 120/1/94 118/1/94
f 106/1/95 107/1/95 117/1/95 116/1/95
f 114/1/96 113/1/96 123/1/96 124/1/96
f 110/1/97 111/1/97 121/1/97 120/1/97
f 107/1/98 108/1/98 118/1/98 117/1/98
f 115/1/99 114/1/99 124/1/99 125/1/99
f 112/1/100 109/1/100 119/1/100 122/1/100
f 116/1/101 117/1/101 127/1/101 126/1/101
f 124/1/102 123/1/102 133/1/102 134/1/102
f 120/1/103 121/1/103 131/1/103 130/1/103
f 117/1/104 118/1/104 128/1/104 127/1/104
f 125/1/105 124/1/105 134/1/105 135/1/105
f 122/1/106 119/1/106 129/1/106 132/1/106
f 119/1/107 116/1/107 126/1/107 129/1/107
f 123/1/108 122/1/108 132/1/108 133/1/108
f 118/1/109 120/1/109 130/1/109 128/1/109
f 90/1/110 91/1/110 138/1/110 137/1/110
f 100/1/111 105/1/111 144/1/111 143/1/111
f 95/1/112 94/1/112 141/1/112 142/1/112
f 94/1/113 93/1/113 140/1/113 141/1/113
f 91/1/114 92/1/114 139/1/114 138/1/114
f 93/1/115 89/1/115 136/1/115 140/1/115
f 89/1/116 90/1/116 137/1/116 136/1/116
f 92/1/117 100/1/117 143/1/117 139/1/117
f 101/1/118 102/1/118 148/1/118 147/1/118
f 132/1/119 129/1/119 157/1/119 160/1/119
f 121/1/120 111/1/120 150/1/120 152/1/120
f 131/1/121 121/1/121 152/1/121 159/1/121
f 103/1/122 101/1/122 147/1/122 149/1/122
f 133/1/119 132/1/119 160/1/119 161/1/119
f 115/1/123 125/1/123 153/1/123 151/1/123
f 62/1/124 61/1/124 145/1/124 146/1/124
f 104/1/125 103/1/125 149/1/125 105/1/125
f 134/1/119 133/1/119 161/1/119 162/1/119
f 126/1/119 127/1/119 155/1/119 154/1/119
f 102/1/123 115/1/123 151/1/123 148/1/123
f 135/1/119 134/1/119 162/1/119 163/1/119
f 61/1/126 80/1/126 95/1/126 145/1/126
f 127/1/119 128/1/119 156/1/119 155/1/119
f 125/1/127 135/1/127 163/1/127 153/1/127
f 129/1/119 126/1/119 154/1/119 157/1/119
f 111/1/120 62/1/120 146/1/120 150/1/120
f 128/1/119 130/1/119 158/1/119 156/1/119
f 130/1/119 131/1/119 159/1/119 158/1/119
f 95/1/128 142/1/128 145/1/128
f 105/1/129 149/1/129 144/1/129
